<svg xmlns="http://www.w3.org/2000/svg" xmlns:xlink="http://www.w3.org/1999/xlink" contentStyleType="text/css" data-diagram-type="ACTIVITY" height="700px" preserveAspectRatio="none" style="width:1089px;height:700px;background:#FFFFFF;" version="1.1" viewBox="0 0 1089 700" width="1089px" zoomAndPan="magnify"><?plantuml 1.2026.6?><defs/><g><g class="title" data-source-line="2"><text fill="#000000" font-family="sans-serif" font-size="14" font-weight="700" lengthAdjust="spacing" textLength="244.7402" x="421.5447" y="33.5352">Adjuster Controller Reconciliation</text></g><ellipse cx="553.4148" cy="62.4883" fill="#222222" rx="10" ry="10" style="stroke:#222222;stroke-width:1;"/><rect fill="#F1F1F1" height="76.5313" rx="12.5" ry="12.5" style="stroke:#181818;stroke-width:0.5;" width="217.0215" x="444.9041" y="92.4883"/><text fill="#000000" font-family="sans-serif" font-size="12" lengthAdjust="spacing" textLength="197.0215" x="454.9041" y="114.0898">Watch Machines phase transitions</text><text fill="#000000" font-family="sans-serif" font-size="12" lengthAdjust="spacing" textLength="92.6895" x="458.7009" y="128.2227">(None)-&gt;Failed,</text><text fill="#000000" font-family="sans-serif" font-size="12" lengthAdjust="spacing" textLength="101.2324" x="458.7009" y="142.3555">Pending-&gt;Failed,</text><text fill="#000000" font-family="sans-serif" font-size="12" lengthAdjust="spacing" textLength="111.5273" x="458.7009" y="156.4883">Pending-&gt;Running</text><rect fill="#F1F1F1" height="34.1328" rx="12.5" ry="12.5" style="stroke:#181818;stroke-width:0.5;" width="152.627" x="477.1013" y="189.0195"/><text fill="#000000" font-family="sans-serif" font-size="12" lengthAdjust="spacing" textLength="132.627" x="487.1013" y="210.6211">Reconcile(machineKey)</text><polygon fill="#F1F1F1" points="167.6155,243.1523,276.8044,243.1523,288.8044,255.1523,276.8044,267.1523,167.6155,267.1523,155.6155,255.1523,167.6155,243.1523" style="stroke:#181818;stroke-width:0.5;stroke-linejoin:miter;stroke-miterlimit:10;"/><text fill="#000000" font-family="sans-serif" font-size="11" lengthAdjust="spacing" textLength="17.4829" x="226.21" y="277.7871">yes</text><text fill="#000000" font-family="sans-serif" font-size="11" lengthAdjust="spacing" textLength="109.189" x="167.6155" y="259.3096">isFirstSeen(machine)</text><rect fill="#F1F1F1" height="34.1328" rx="12.5" ry="12.5" style="stroke:#181818;stroke-width:0.5;" width="215.0176" x="114.7012" y="299.2871"/><text fill="#000000" font-family="sans-serif" font-size="12" lengthAdjust="spacing" textLength="195.0176" x="124.7012" y="320.8887">reconcileMachineCreate(machine)</text><rect fill="#F1F1F1" height="34.1328" rx="12.5" ry="12.5" style="stroke:#181818;stroke-width:0.5;" width="317.0645" x="63.6777" y="353.4199"/><text fill="#000000" font-family="sans-serif" font-size="12" lengthAdjust="spacing" textLength="297.0645" x="73.6777" y="375.0215">GetMachineDeploymentAndMachineClass(machine)</text><rect fill="#F1F1F1" height="34.1328" rx="12.5" ry="12.5" style="stroke:#181818;stroke-width:0.5;" width="255.9629" x="94.2285" y="407.5527"/><text fill="#000000" font-family="sans-serif" font-size="12" lengthAdjust="spacing" textLength="235.9629" x="104.2285" y="429.1543">Create ProvisionKey(instanceType, Zone)</text><rect fill="#F1F1F1" height="34.1328" rx="12.5" ry="12.5" style="stroke:#181818;stroke-width:0.5;" width="334.7305" x="54.8447" y="461.6855"/><text fill="#000000" font-family="sans-serif" font-size="12" lengthAdjust="spacing" textLength="314.7305" x="64.8447" y="483.2871">Add Deployment name to expiring provisionKeys map</text><rect fill="#F1F1F1" height="34.1328" rx="12.5" ry="12.5" style="stroke:#181818;stroke-width:0.5;" width="412.4199" x="16" y="515.8184"/><text fill="#000000" font-family="sans-serif" font-size="12" lengthAdjust="spacing" textLength="392.4199" x="26" y="537.4199">Add MachineTrackInfo(joined,failed) to expiring machineTrack map</text><rect fill="#F1F1F1" height="48.2656" rx="12.5" ry="12.5" style="stroke:#181818;stroke-width:0.5;" width="341.3164" x="51.5518" y="569.9512"/><text fill="#000000" font-family="sans-serif" font-size="12" lengthAdjust="spacing" textLength="321.3164" x="61.5518" y="591.5527">Add DeploymentStat:(joinDuration,failCount,joinCount)</text><text fill="#000000" font-family="sans-serif" font-size="12" lengthAdjust="spacing" textLength="137.0625" x="61.5518" y="605.6855">to DeploymentStat map</text><polygon fill="#F1F1F1" points="485.906,243.1523,590.2717,243.1523,602.2717,255.1523,590.2717,267.1523,485.906,267.1523,473.906,255.1523,485.906,243.1523" style="stroke:#181818;stroke-width:0.5;stroke-linejoin:miter;stroke-miterlimit:10;"/><text fill="#000000" font-family="sans-serif" font-size="11" lengthAdjust="spacing" textLength="17.4829" x="542.0889" y="277.7871">yes</text><text fill="#000000" font-family="sans-serif" font-size="11" lengthAdjust="spacing" textLength="104.3657" x="485.906" y="259.3096">isFirstJoin(machine)</text><text fill="#000000" font-family="sans-serif" font-size="11" lengthAdjust="spacing" textLength="13.5835" x="460.3225" y="252.832">no</text><rect fill="#F1F1F1" height="34.1328" rx="12.5" ry="12.5" style="stroke:#181818;stroke-width:0.5;" width="199.3379" x="438.4199" y="299.2871"/><text fill="#000000" font-family="sans-serif" font-size="12" lengthAdjust="spacing" textLength="179.3379" x="448.4199" y="320.8887">reconcileMachineJoin(machine)</text><polygon fill="#F1F1F1" points="700.7241,243.1523,841.2964,243.1523,853.2964,255.1523,841.2964,267.1523,700.7241,267.1523,688.7241,255.1523,700.7241,243.1523" style="stroke:#181818;stroke-width:0.5;stroke-linejoin:miter;stroke-miterlimit:10;"/><text fill="#000000" font-family="sans-serif" font-size="11" lengthAdjust="spacing" textLength="17.4829" x="775.0103" y="277.7871">yes</text><text fill="#000000" font-family="sans-serif" font-size="11" lengthAdjust="spacing" textLength="140.5723" x="700.7241" y="259.3096">isFirstSeenFailed(machine)</text><text fill="#000000" font-family="sans-serif" font-size="11" lengthAdjust="spacing" textLength="13.5835" x="675.1406" y="252.832">no</text><rect fill="#F1F1F1" height="34.1328" rx="12.5" ry="12.5" style="stroke:#181818;stroke-width:0.5;" width="199.3379" x="671.3413" y="299.2871"/><text fill="#000000" font-family="sans-serif" font-size="12" lengthAdjust="spacing" textLength="179.3379" x="681.3413" y="320.8887">reconcileMachineJoin(machine)</text><polygon fill="#F1F1F1" points="909.8928,243.1523,1011.616,243.1523,1023.616,255.1523,1011.616,267.1523,909.8928,267.1523,897.8928,255.1523,909.8928,243.1523" style="stroke:#181818;stroke-width:0.5;stroke-linejoin:miter;stroke-miterlimit:10;"/><text fill="#000000" font-family="sans-serif" font-size="11" lengthAdjust="spacing" textLength="17.4829" x="964.7544" y="277.7871">yes</text><text fill="#000000" font-family="sans-serif" font-size="11" lengthAdjust="spacing" textLength="101.7231" x="909.8928" y="259.3096">isDeleted(machine)</text><text fill="#000000" font-family="sans-serif" font-size="11" lengthAdjust="spacing" textLength="13.5835" x="884.3093" y="252.832">no</text><rect fill="#F1F1F1" height="34.1328" rx="12.5" ry="12.5" style="stroke:#181818;stroke-width:0.5;" width="160.1504" x="880.6792" y="299.2871"/><text fill="#000000" font-family="sans-serif" font-size="12" lengthAdjust="spacing" textLength="140.1504" x="890.6792" y="320.8887">clearStateData(machine)</text><ellipse cx="553.4148" cy="669.2168" fill="none" rx="11" ry="11" style="stroke:#222222;stroke-width:1;"/><ellipse cx="553.4148" cy="669.2168" fill="#222222" rx="6" ry="6" style="stroke:#222222;stroke-width:1;"/><line style="stroke:#181818;stroke-width:1;" x1="553.4148" x2="553.4148" y1="72.4883" y2="92.4883"/><polygon fill="#181818" points="549.4148,82.4883,553.4148,92.4883,557.4148,82.4883,553.4148,86.4883" style="stroke:#181818;stroke-width:1;stroke-linejoin:miter;stroke-miterlimit:10;"/><line style="stroke:#181818;stroke-width:1;" x1="553.4148" x2="553.4148" y1="169.0195" y2="189.0195"/><polygon fill="#181818" points="549.4148,179.0195,553.4148,189.0195,557.4148,179.0195,553.4148,183.0195" style="stroke:#181818;stroke-width:1;stroke-linejoin:miter;stroke-miterlimit:10;"/><line style="stroke:#181818;stroke-width:1;" x1="222.21" x2="222.21" y1="333.4199" y2="353.4199"/><polygon fill="#181818" points="218.21,343.4199,222.21,353.4199,226.21,343.4199,222.21,347.4199" style="stroke:#181818;stroke-width:1;stroke-linejoin:miter;stroke-miterlimit:10;"/><line style="stroke:#181818;stroke-width:1;" x1="222.21" x2="222.21" y1="387.5527" y2="407.5527"/><polygon fill="#181818" points="218.21,397.5527,222.21,407.5527,226.21,397.5527,222.21,401.5527" style="stroke:#181818;stroke-width:1;stroke-linejoin:miter;stroke-miterlimit:10;"/><line style="stroke:#181818;stroke-width:1;" x1="222.21" x2="222.21" y1="441.6855" y2="461.6855"/><polygon fill="#181818" points="218.21,451.6855,222.21,461.6855,226.21,451.6855,222.21,455.6855" style="stroke:#181818;stroke-width:1;stroke-linejoin:miter;stroke-miterlimit:10;"/><line style="stroke:#181818;stroke-width:1;" x1="222.21" x2="222.21" y1="495.8184" y2="515.8184"/><polygon fill="#181818" points="218.21,505.8184,222.21,515.8184,226.21,505.8184,222.21,509.8184" style="stroke:#181818;stroke-width:1;stroke-linejoin:miter;stroke-miterlimit:10;"/><line style="stroke:#181818;stroke-width:1;" x1="222.21" x2="222.21" y1="549.9512" y2="569.9512"/><polygon fill="#181818" points="218.21,559.9512,222.21,569.9512,226.21,559.9512,222.21,563.9512" style="stroke:#181818;stroke-width:1;stroke-linejoin:miter;stroke-miterlimit:10;"/><line style="stroke:#181818;stroke-width:1;" x1="222.21" x2="222.21" y1="267.1523" y2="299.2871"/><polygon fill="#181818" points="218.21,289.2871,222.21,299.2871,226.21,289.2871,222.21,293.2871" style="stroke:#181818;stroke-width:1;stroke-linejoin:miter;stroke-miterlimit:10;"/><line style="stroke:#181818;stroke-width:1;" x1="222.21" x2="222.21" y1="618.2168" y2="638.2168"/><polygon fill="#181818" points="218.21,628.2168,222.21,638.2168,226.21,628.2168,222.21,632.2168" style="stroke:#181818;stroke-width:1;stroke-linejoin:miter;stroke-miterlimit:10;"/><line style="stroke:#181818;stroke-width:1;" x1="538.0889" x2="538.0889" y1="267.1523" y2="299.2871"/><polygon fill="#181818" points="534.0889,289.2871,538.0889,299.2871,542.0889,289.2871,538.0889,293.2871" style="stroke:#181818;stroke-width:1;stroke-linejoin:miter;stroke-miterlimit:10;"/><line style="stroke:#181818;stroke-width:1;" x1="538.0889" x2="538.0889" y1="333.4199" y2="638.2168"/><polygon fill="#181818" points="534.0889,628.2168,538.0889,638.2168,542.0889,628.2168,538.0889,632.2168" style="stroke:#181818;stroke-width:1;stroke-linejoin:miter;stroke-miterlimit:10;"/><line style="stroke:#181818;stroke-width:1;" x1="771.0103" x2="771.0103" y1="267.1523" y2="299.2871"/><polygon fill="#181818" points="767.0103,289.2871,771.0103,299.2871,775.0103,289.2871,771.0103,293.2871" style="stroke:#181818;stroke-width:1;stroke-linejoin:miter;stroke-miterlimit:10;"/><line style="stroke:#181818;stroke-width:1;" x1="771.0103" x2="771.0103" y1="333.4199" y2="638.2168"/><polygon fill="#181818" points="767.0103,628.2168,771.0103,638.2168,775.0103,628.2168,771.0103,632.2168" style="stroke:#181818;stroke-width:1;stroke-linejoin:miter;stroke-miterlimit:10;"/><line style="stroke:#181818;stroke-width:1;" x1="960.7544" x2="960.7544" y1="267.1523" y2="299.2871"/><polygon fill="#181818" points="956.7544,289.2871,960.7544,299.2871,964.7544,289.2871,960.7544,293.2871" style="stroke:#181818;stroke-width:1;stroke-linejoin:miter;stroke-miterlimit:10;"/><line style="stroke:#181818;stroke-width:1;" x1="960.7544" x2="960.7544" y1="333.4199" y2="638.2168"/><polygon fill="#181818" points="956.7544,628.2168,960.7544,638.2168,964.7544,628.2168,960.7544,632.2168" style="stroke:#181818;stroke-width:1;stroke-linejoin:miter;stroke-miterlimit:10;"/><line style="stroke:#181818;stroke-width:1;" x1="288.8044" x2="473.906" y1="255.1523" y2="255.1523"/><polygon fill="#181818" points="463.906,251.1523,473.906,255.1523,463.906,259.1523,467.906,255.1523" style="stroke:#181818;stroke-width:1;stroke-linejoin:miter;stroke-miterlimit:10;"/><line style="stroke:#181818;stroke-width:1;" x1="602.2717" x2="688.7241" y1="255.1523" y2="255.1523"/><polygon fill="#181818" points="678.7241,251.1523,688.7241,255.1523,678.7241,259.1523,682.7241,255.1523" style="stroke:#181818;stroke-width:1;stroke-linejoin:miter;stroke-miterlimit:10;"/><line style="stroke:#181818;stroke-width:1;" x1="853.2964" x2="897.8928" y1="255.1523" y2="255.1523"/><polygon fill="#181818" points="887.8928,251.1523,897.8928,255.1523,887.8928,259.1523,891.8928,255.1523" style="stroke:#181818;stroke-width:1;stroke-linejoin:miter;stroke-miterlimit:10;"/><line style="stroke:#181818;stroke-width:1;" x1="553.4148" x2="553.4148" y1="223.1523" y2="228.1523"/><line style="stroke:#181818;stroke-width:1;" x1="553.4148" x2="222.21" y1="228.1523" y2="228.1523"/><line style="stroke:#181818;stroke-width:1;" x1="222.21" x2="222.21" y1="228.1523" y2="243.1523"/><polygon fill="#181818" points="218.21,233.1523,222.21,243.1523,226.21,233.1523,222.21,237.1523" style="stroke:#181818;stroke-width:1;stroke-linejoin:miter;stroke-miterlimit:10;"/><line style="stroke:#181818;stroke-width:1;" x1="1023.616" x2="1054.8296" y1="255.1523" y2="255.1523"/><line style="stroke:#181818;stroke-width:1;" x1="1054.8296" x2="1054.8296" y1="255.1523" y2="638.2168"/><polygon fill="#181818" points="1050.8296,628.2168,1054.8296,638.2168,1058.8296,628.2168,1054.8296,632.2168" style="stroke:#181818;stroke-width:1;stroke-linejoin:miter;stroke-miterlimit:10;"/><line style="stroke:#181818;stroke-width:1;" x1="222.21" x2="1054.8296" y1="638.2168" y2="638.2168"/><line style="stroke:#181818;stroke-width:1;" x1="553.4148" x2="553.4148" y1="638.2168" y2="658.2168"/><polygon fill="#181818" points="549.4148,648.2168,553.4148,658.2168,557.4148,648.2168,553.4148,652.2168" style="stroke:#181818;stroke-width:1;stroke-linejoin:miter;stroke-miterlimit:10;"/><?plantuml-src hPDjQzj03CVVtwVGkzYGVO44La92opOsIbiOZ44Gjb9VTzQv9pdK_VIJxMInInaCvbUofF_lz70dYacTUWq4c_Af5QK4syYQOWXctb4HkV31e_h8pgs-enOLVCMYyam2JOL2e0bPV9yX3h9laId_yF4QVQ1owU2MkFJy-9xdhcKsO-rMvuCegqVs5-hojVC7oBnS-oHwJyJdO9w3LiIGTIIv0_jMwGmurRPDXFg7PgWXwuRq5DzH4s9N4-k6oxCceCXRoGY2snIFNgn5AoppB8fSq4FNq19-n4lsfYpXWWR6siOJWLuQdwnJQ2OOWHgRYUvKnKF2ujSdFiJiATflkJmCSyjdd7gI-mPpEVvUKLS3PTUcOOC3QnjRrcNl7gnnW0QV2qTgnZ472aAJJNmsvJziOfR-Fh7VxNWx_XjtHu7qhxmY4AQ-KzgXueJKtyw3SsxHasuIDjNHlyAmStiKvTKCjJ2IBRKW4R3mJzFYOy9QrcxHLmDzNREioA7h7Vkzq7DBTetsUq0kpO65-gFNpXnJp5YFQ6pSRm00?></g></svg>